{
    "asset" : {
        "generator" : "Khronos glTF Blender I/O v3.3.32",
        "version" : "2.0"
    },
    "scene" : 0,
    "scenes" : [
        {
            "name" : "Scene",
            "nodes" : [
                0
            ]
        }
    ],
    "nodes" : [
        {
            "mesh" : 0,
            "name" : "ChristmasTree"
        }
    ],
    "meshes" : [
        {
            "name" : "ChristmasTree",
            "primitives" : [
                {
                    "attributes" : {
                        "POSITION" : 0,
                        "NORMAL" : 1,
                        "TEXCOORD_0" : 2
                    },
                    "indices" : 3
                },
                {
                    "attributes" : {
                        "POSITION" : 4,
                        "NORMAL" : 5,
                        "TEXCOORD_0" : 6
                    },
                    "indices" : 7
                }
            ]
        }
    ],
    "accessors" : [
        {
            "bufferView" : 0,
            "componentType" : 5126,
            "count" : 68,
            "max" : [
                0.1995878666639328,
                2.3979666233062744,
                0.1995878666639328
            ],
            "min" : [
                -0.1995878666639328,
                0,
                -0.1995878666639328
            ],
            "type" : "VEC3"
        },
        {
            "bufferView" : 1,
            "componentType" : 5126,
            "count" : 68,
            "type" : "VEC3"
        },
        {
            "bufferView" : 2,
            "componentType" : 5126,
            "count" : 68,
            "type" : "VEC2"
        },
        {
            "bufferView" : 3,
            "componentType" : 5123,
            "count" : 135,
            "type" : "SCALAR"
        },
        {
            "bufferView" : 4,
            "componentType" : 5126,
            "count" : 464,
            "max" : [
                1.0776959657669067,
                2.141871213912964,
                1.079978108406067
            ],
            "min" : [
                -1.107893705368042,
                0.39358454942703247,
                -1.1370548009872437
            ],
            "type" : "VEC3"
        },
        {
            "bufferView" : 5,
            "componentType" : 5126,
            "count" : 464,
            "type" : "VEC3"
        },
        {
            "bufferView" : 6,
            "componentType" : 5126,
            "count" : 464,
            "type" : "VEC2"
        },
        {
            "bufferView" : 7,
            "componentType" : 5123,
            "count" : 696,
            "type" : "SCALAR"
        }
    ],
    "bufferViews" : [
        {
            "buffer" : 0,
            "byteLength" : 816,
            "byteOffset" : 0,
            "target" : 34962
        },
        {
            "buffer" : 0,
            "byteLength" : 816,
            "byteOffset" : 816,
            "target" : 34962
        },
        {
            "buffer" : 0,
            "byteLength" : 544,
            "byteOffset" : 1632,
            "target" : 34962
        },
        {
            "buffer" : 0,
            "byteLength" : 270,
            "byteOffset" : 2176,
            "target" : 34963
        },
        {
            "buffer" : 0,
            "byteLength" : 5568,
            "byteOffset" : 2448,
            "target" : 34962
        },
        {
            "buffer" : 0,
            "byteLength" : 5568,
            "byteOffset" : 8016,
            "target" : 34962
        },
        {
            "buffer" : 0,
            "byteLength" : 3712,
            "byteOffset" : 13584,
            "target" : 34962
        },
        {
            "buffer" : 0,
            "byteLength" : 1392,
            "byteOffset" : 17296,
            "target" : 34963
        }
    ],
    "buffers" : [
        {
            "byteLength" : 18688,
            "uri" : "christmas_tree.bin"
        }
    ]
}
