{
    "asset" : {
        "generator" : "Khronos glTF Blender I/O v3.3.32",
        "version" : "2.0"
    },
    "scene" : 0,
    "scenes" : [
        {
            "name" : "Scene",
            "nodes" : [
                0
            ]
        }
    ],
    "nodes" : [
        {
            "mesh" : 0,
            "name" : "Hammer",
            "translation" : [
                -3,
                0,
                0
            ]
        }
    ],
    "meshes" : [
        {
            "name" : "Cube.002",
            "primitives" : [
                {
                    "attributes" : {
                        "POSITION" : 0,
                        "NORMAL" : 1,
                        "TANGENT" : 2,
                        "TEXCOORD_0" : 3
                    },
                    "indices" : 4
                }
            ]
        }
    ],
    "accessors" : [
        {
            "bufferView" : 0,
            "componentType" : 5126,
            "count" : 134,
            "max" : [
                0.2320052832365036,
                0.28618741035461426,
                0.046087879687547684
            ],
            "min" : [
                -0.21083661913871765,
                -0.2715989649295807,
                -0.046087879687547684
            ],
            "type" : "VEC3"
        },
        {
            "bufferView" : 1,
            "componentType" : 5126,
            "count" : 134,
            "type" : "VEC3"
        },
        {
            "bufferView" : 2,
            "componentType" : 5126,
            "count" : 134,
            "type" : "VEC4"
        },
        {
            "bufferView" : 3,
            "componentType" : 5126,
            "count" : 134,
            "type" : "VEC2"
        },
        {
            "bufferView" : 4,
            "componentType" : 5123,
            "count" : 192,
            "type" : "SCALAR"
        }
    ],
    "bufferViews" : [
        {
            "buffer" : 0,
            "byteLength" : 1608,
            "byteOffset" : 0,
            "target" : 34962
        },
        {
            "buffer" : 0,
            "byteLength" : 1608,
            "byteOffset" : 1608,
            "target" : 34962
        },
        {
            "buffer" : 0,
            "byteLength" : 2144,
            "byteOffset" : 3216,
            "target" : 34962
        },
        {
            "buffer" : 0,
            "byteLength" : 1072,
            "byteOffset" : 5360,
            "target" : 34962
        },
        {
            "buffer" : 0,
            "byteLength" : 384,
            "byteOffset" : 6432,
            "target" : 34963
        }
    ],
    "buffers" : [
        {
            "byteLength" : 6816,
            "uri" : "hammer_mesh.bin"
        }
    ]
}
