{
    "asset" : {
        "generator" : "Khronos glTF Blender I/O v3.4.50",
        "version" : "2.0"
    },
    "scene" : 0,
    "scenes" : [
        {
            "name" : "Scene",
            "nodes" : [
                0
            ]
        }
    ],
    "nodes" : [
        {
            "mesh" : 0,
            "name" : "Wrench",
            "translation" : [
                -2,
                0,
                0
            ]
        }
    ],
    "meshes" : [
        {
            "name" : "Wrench",
            "primitives" : [
                {
                    "attributes" : {
                        "POSITION" : 0,
                        "TEXCOORD_0" : 1,
                        "NORMAL" : 2
                    },
                    "indices" : 3
                }
            ]
        }
    ],
    "accessors" : [
        {
            "bufferView" : 0,
            "componentType" : 5126,
            "count" : 136,
            "max" : [
                0.10607682913541794,
                0.2801497280597687,
                0.03158979117870331
            ],
            "min" : [
                -0.10607682913541794,
                -0.28284981846809387,
                -0.031589772552251816
            ],
            "type" : "VEC3"
        },
        {
            "bufferView" : 1,
            "componentType" : 5126,
            "count" : 136,
            "type" : "VEC2"
        },
        {
            "bufferView" : 2,
            "componentType" : 5126,
            "count" : 136,
            "type" : "VEC3"
        },
        {
            "bufferView" : 3,
            "componentType" : 5123,
            "count" : 372,
            "type" : "SCALAR"
        }
    ],
    "bufferViews" : [
        {
            "buffer" : 0,
            "byteLength" : 1632,
            "byteOffset" : 0,
            "target" : 34962
        },
        {
            "buffer" : 0,
            "byteLength" : 1088,
            "byteOffset" : 1632,
            "target" : 34962
        },
        {
            "buffer" : 0,
            "byteLength" : 1632,
            "byteOffset" : 2720,
            "target" : 34962
        },
        {
            "buffer" : 0,
            "byteLength" : 744,
            "byteOffset" : 4352,
            "target" : 34963
        }
    ],
    "buffers" : [
        {
            "byteLength" : 5096,
            "uri" : "wrench_mesh.bin"
        }
    ]
}
